# xmcd
#
# Track frame offsets:
#	150
#	17137
#	37610
#	56745
#	76387
#	95590
#	118082
#	137790
#	153107
#	173562
#	196387
#	219425
#	239960
#	258987
#	278980
#	295950
#
# Disc length: 4179
#
# Revision: 1
# Processed by: cddbd v1.5.1PL0 Copyright (c) Steve Scherf et al.
# Submitted via: EasyCDDAExtractor 7.1.3.1
# Normalized: r0:DSETVAR1
#
DISCID=e5105110
DTITLE=Various Artist - Blondes in love 3
DYEAR=1900
DGENRE=love
TTITLE0=A-Ha - Hunting high and low
TTITLE1=Terence Trent D'Arby - Sign your name
TTITLE2=Fleetwood Mac - Dreams
TTITLE3=K.D. Lang - Constant craving
TTITLE4=Christopher Cross - Sailing
TTITLE5=Robert Plant - Ship of fools
TTITLE6=Matt Bainco - More than I can bear
TTITLE7=Simply Red - If you don't love me by now
TTITLE8=Phil Collins - Do you remember ?
TTITLE9=Chris Rea - On the beach
TTITLE10=Chicago - Hard to say I'm sorryTe seetest taboo
TTITLE11=Sade - The sweetest taboo
TTITLE12=Marc Cohon - Walking in Menphis
TTITLE13=Yes - Owner of a lonely heart
TTITLE14=Nick Kamen - Loving you is sweeter than ever
TTITLE15=Natalie Cole - Miss you like crazy
EXTD=
EXTT0=
EXTT1=
EXTT2=
EXTT3=
EXTT4=
EXTT5=
EXTT6=
EXTT7=
EXTT8=
EXTT9=
EXTT10=
EXTT11=
EXTT12=
EXTT13=
EXTT14=
EXTT15=
PLAYORDER=
